<svg width="132" height="70" viewBox="0 0 132 70" fill="none" xmlns="http://www.w3.org/2000/svg">
<path fill-rule="evenodd" clip-rule="evenodd" d="M6.31845 42.72H1.66402V38.0733V28.3302V27.8806L6.91902 23.6836H24.786V28.3302H6.31845V38.0733H17.7293H24.786V38.523L19.531 42.72H17.8794H6.46859H6.31845ZM82.1406 0.000478879H86.795V11.3923L92.05 7.19534H100.458V0.000478879H105.112V19.0369H100.458V11.842H86.6449V19.0369H81.9904V0.000478879H82.1406ZM69.979 9.44373L78.2369 0.000478879H71.9309L69.2283 2.69855V7.94481L69.5286 8.69427L61.7211 -0.149414H55.4151L63.8231 9.29384L64.4237 9.89341L55.4151 18.7371H61.7211L64.5739 15.2896V10.1932L72.081 18.7371H78.387L69.979 9.29384V9.44373ZM28.3894 0.000478879H33.0439V4.19748L38.2989 0.000478879H51.5114V4.64716H33.0439V11.3923L38.2989 7.19534H47.1573V11.842H33.0439V18.5872L38.2989 14.3902H51.5114V19.0369H33.0439H28.3894V0.000478879ZM15.4772 4.64716V19.0369H10.8227V4.64716H1.66402V0.000478879H8.2703H18.0296H24.6359V4.64716H15.4772ZM5.56773 50.3645H3.16545V56.3602H2.26459V50.3645H-0.137695V49.4651H5.56773V50.3645ZM12.7746 55.4609V56.3602H7.81987V49.4651H12.6244V50.3645H8.72073V52.463H12.174V53.3624H8.72073V55.6108H12.7746V55.4609ZM15.6273 49.4651L17.429 52.0133L19.2307 49.4651H20.4319L18.1797 52.7628L20.7322 56.3602H19.531L17.5792 53.6622L15.6273 56.3602H14.4262L16.9786 52.7628L14.5763 49.4651H15.7774H15.6273ZM28.5396 49.4651V56.3602H27.4886V53.3624H23.5849V56.3602H22.5339V49.4651H23.5849V52.463H27.4886V49.4651H28.5396ZM34.8456 56.3602C34.0949 56.3602 33.4943 56.2103 33.0439 55.9105C32.4433 55.6108 31.9929 55.1611 31.6926 54.7114C31.3923 54.1118 31.2422 53.5123 31.2422 52.9127C31.2422 52.3131 31.3923 51.7135 31.6926 51.114C31.9929 50.5144 32.4433 50.2146 33.0439 49.9148C33.6444 49.615 34.245 49.4651 34.8456 49.4651C35.5963 49.4651 36.1969 49.615 36.6473 49.9148C37.2479 50.2146 37.6983 50.6643 37.9986 51.114C38.2989 51.7135 38.449 52.3131 38.449 52.9127C38.449 53.5123 38.2989 54.1118 37.9986 54.7114C37.6983 55.311 37.2479 55.6108 36.6473 55.9105C36.0467 56.2103 35.4462 56.3602 34.8456 56.3602ZM34.8456 55.4609C35.296 55.4609 35.7464 55.311 36.1969 55.1611C36.6473 54.8613 36.9476 54.5615 37.0977 54.2617C37.398 53.812 37.398 53.3624 37.398 52.9127C37.398 52.463 37.2479 52.0133 37.0977 51.5637C36.7974 51.114 36.4972 50.8142 36.1969 50.6643C35.7464 50.3645 35.296 50.3645 34.8456 50.3645C34.3952 50.3645 33.9447 50.5144 33.4943 50.6643C33.0439 50.9641 32.7436 51.2639 32.5934 51.5637C32.2932 52.0133 32.2932 52.463 32.2932 52.9127C32.2932 53.3624 32.4433 53.812 32.5934 54.2617C32.8937 54.7114 33.194 55.0112 33.4943 55.1611C33.9447 55.4609 34.3952 55.4609 34.8456 55.4609ZM46.5567 49.4651V56.3602H45.6559V50.3645H42.653V52.3131C42.653 53.2125 42.5029 53.9619 42.3527 54.5615C42.2026 55.1611 42.0524 55.6108 41.7522 55.9105C41.4519 56.2103 41.1516 56.3602 40.7012 56.3602C40.551 56.3602 40.2507 56.3602 40.1006 56.2103V55.311C40.2507 55.311 40.2507 55.311 40.4009 55.311C40.7012 55.311 40.8513 55.1611 41.1516 55.0112C41.3017 54.7114 41.4519 54.4116 41.602 53.9619C41.7522 53.5123 41.7522 52.9127 41.7522 52.1632L41.9023 49.3153H46.7069L46.5567 49.4651ZM52.8627 56.3602C52.112 56.3602 51.5114 56.2103 51.061 55.9105C50.4604 55.6108 50.01 55.1611 49.7097 54.7114C49.4094 54.1118 49.2593 53.5123 49.2593 52.9127C49.2593 52.3131 49.4094 51.7135 49.7097 51.114C50.01 50.5144 50.4604 50.2146 51.061 49.9148C51.6616 49.615 52.2621 49.4651 52.8627 49.4651C53.6134 49.4651 54.214 49.615 54.6644 49.9148C55.265 50.2146 55.7154 50.6643 56.0157 51.114C56.316 51.7135 56.4661 52.3131 56.4661 52.9127C56.4661 53.5123 56.316 54.1118 56.0157 54.7114C55.7154 55.311 55.265 55.6108 54.6644 55.9105C54.0639 56.2103 53.4633 56.3602 52.8627 56.3602ZM52.8627 55.4609C53.3131 55.4609 53.7636 55.311 54.214 55.1611C54.6644 54.8613 54.9647 54.5615 55.1149 54.2617C55.4151 53.812 55.4151 53.3624 55.4151 52.9127C55.4151 52.463 55.265 52.0133 55.1149 51.5637C54.8146 51.114 54.5143 50.8142 54.214 50.6643C53.7636 50.3645 53.3131 50.3645 52.8627 50.3645C52.4123 50.3645 51.9619 50.5144 51.5114 50.6643C51.061 50.9641 50.7607 51.2639 50.6106 51.5637C50.3103 52.0133 50.3103 52.463 50.3103 52.9127C50.3103 53.3624 50.4604 53.812 50.6106 54.2617C50.9109 54.7114 51.2111 55.0112 51.5114 55.1611C51.9619 55.4609 52.4123 55.4609 52.8627 55.4609ZM63.5229 50.2146H59.9194V56.2103H59.0186V49.3153H63.5229V50.2146ZM65.775 49.3153H66.6759V54.5615L70.7297 49.3153H71.6306V56.2103H70.7297V50.9641L66.6759 56.2103H65.775V49.3153ZM79.7383 49.3153V56.2103H78.8374V53.5123C78.0867 53.812 77.4861 53.9619 76.8856 53.9619C75.9847 53.9619 75.3841 53.812 74.9337 53.3624C74.4833 52.9127 74.183 52.3131 74.183 51.5637V49.3153H75.0839V51.4138C75.0839 51.8634 75.234 52.3131 75.5343 52.6129C75.8346 52.9127 76.285 53.0626 76.8856 53.0626C77.4861 53.0626 78.0867 52.9127 78.8374 52.6129V49.3153H79.7383ZM87.846 55.311V56.2103H82.8913V49.3153H87.6959V50.2146H83.7921V52.3131H87.2454V53.2125H83.7921V55.4609H87.846V55.311ZM93.4013 56.2103C92.6506 56.2103 92.05 56.0604 91.5996 55.7607C90.999 55.4609 90.5486 55.0112 90.2483 54.5615C89.948 53.9619 89.7979 53.3624 89.7979 52.7628C89.7979 52.1632 89.948 51.5637 90.2483 50.9641C90.5486 50.3645 90.999 50.0647 91.5996 49.7649C92.2001 49.4651 92.8007 49.3153 93.4013 49.3153C94.0019 49.3153 94.4523 49.4651 94.9027 49.615C95.3531 49.7649 95.6534 50.0647 96.1039 50.3645L95.5033 50.9641C95.0528 50.3645 94.3021 50.2146 93.5514 50.2146C93.101 50.2146 92.6506 50.3645 92.2001 50.5144C91.7497 50.8142 91.4494 51.114 91.2993 51.4138C90.999 51.8634 90.999 52.3131 90.999 52.7628C90.999 53.2125 91.1491 53.6622 91.2993 54.1118C91.5996 54.5615 91.8998 54.8613 92.2001 55.0112C92.6506 55.311 93.101 55.311 93.5514 55.311C94.3021 55.311 94.9027 55.0112 95.5033 54.5615L96.1039 55.1611C95.8036 55.4609 95.3531 55.7607 94.9027 55.9105C94.4523 56.0604 94.0019 56.2103 93.4013 56.2103ZM100.758 53.0626H99.2569V56.0604H98.356V49.1654H99.2569V52.1632H100.758L102.86 49.1654H103.911L101.509 52.463L104.061 56.0604H103.01L100.758 53.0626ZM109.166 56.2103C108.416 56.2103 107.815 56.0604 107.365 55.7607C106.764 55.4609 106.314 55.0112 106.013 54.5615C105.713 53.9619 105.563 53.3624 105.563 52.7628C105.563 52.1632 105.713 51.5637 106.013 50.9641C106.314 50.3645 106.764 50.0647 107.365 49.7649C107.965 49.4651 108.566 49.3153 109.166 49.3153C109.917 49.3153 110.518 49.4651 110.968 49.7649C111.569 50.0647 112.019 50.5144 112.319 50.9641C112.62 51.5637 112.77 52.1632 112.77 52.7628C112.77 53.3624 112.62 53.9619 112.319 54.5615C112.019 55.1611 111.569 55.4609 110.968 55.7607C110.367 56.0604 109.767 56.2103 109.166 56.2103ZM109.166 55.311C109.617 55.311 110.067 55.1611 110.518 55.0112C110.968 54.7114 111.268 54.4116 111.418 54.1118C111.719 53.6622 111.719 53.2125 111.719 52.7628C111.719 52.3131 111.569 51.8634 111.418 51.4138C111.118 50.9641 110.818 50.6643 110.518 50.5144C110.067 50.2146 109.617 50.2146 109.166 50.2146C108.716 50.2146 108.265 50.3645 107.815 50.5144C107.365 50.8142 107.064 51.114 106.914 51.4138C106.614 51.8634 106.614 52.3131 106.614 52.7628C106.614 53.2125 106.764 53.6622 106.914 54.1118C107.214 54.5615 107.515 54.8613 107.815 55.0112C108.265 55.311 108.716 55.311 109.166 55.311ZM120.427 55.311V56.2103H115.472V49.3153H120.277V50.2146H116.373V52.3131H119.826V53.2125H116.373V55.4609H120.427V55.311ZM4.21645 68.3517C3.46573 68.3517 2.86516 68.2018 2.41473 67.902C1.81416 67.6022 1.36373 67.1525 1.06345 66.7028C0.763162 66.1033 0.613019 65.5037 0.613019 64.9041C0.613019 64.3046 0.763162 63.705 1.06345 63.1054C1.36373 62.5058 1.81416 62.2061 2.41473 61.9063C3.0153 61.6065 3.61588 61.4566 4.21645 61.4566C4.96716 61.4566 5.56773 61.6065 6.01816 61.9063C6.61873 62.2061 7.06916 62.6557 7.36945 63.1054C7.66973 63.705 7.81987 64.3046 7.81987 64.9041C7.81987 65.5037 7.66973 66.1033 7.36945 66.7028C7.06916 67.3024 6.61873 67.6022 6.01816 67.902C5.41759 68.2018 4.81702 68.3517 4.21645 68.3517ZM4.21645 67.4523C4.66687 67.4523 5.1173 67.3024 5.56773 67.1525C6.01816 66.8527 6.31845 66.5529 6.46859 66.2532C6.76887 65.8035 6.76887 65.3538 6.76887 64.9041C6.76887 64.4544 6.61873 64.0048 6.46859 63.5551C6.1683 63.1054 5.86802 62.8056 5.56773 62.6557C5.1173 62.3559 4.66687 62.3559 4.21645 62.3559C3.76602 62.3559 3.31559 62.5058 2.86516 62.6557C2.41473 62.9555 2.11445 63.2553 1.9643 63.5551C1.66402 64.0048 1.66402 64.4544 1.66402 64.9041C1.66402 65.3538 1.81416 65.8035 1.9643 66.2532C2.26459 66.7028 2.56488 67.0026 2.86516 67.1525C3.31559 67.4523 3.76602 67.4523 4.21645 67.4523ZM10.5224 61.4566H15.7774V62.3559H11.5734V64.3046H13.6754C14.4262 64.3046 15.1769 64.4544 15.4772 64.7542C15.9276 65.054 16.0777 65.6536 16.0777 66.2532C16.0777 66.8527 15.7774 67.4523 15.327 67.7521C14.8766 68.0519 14.276 68.3517 13.3752 68.3517H10.3723V61.4566H10.5224ZM13.3752 67.6022C13.9757 67.6022 14.4262 67.4523 14.7264 67.3024C15.0267 67.1525 15.1769 66.7028 15.1769 66.4031C15.1769 65.5037 14.5763 65.2039 13.3752 65.2039H11.4233V67.7521H13.3752V67.6022ZM21.7832 68.5016C21.0324 68.5016 20.4319 68.3517 19.9814 68.0519C19.3809 67.7521 18.9304 67.3024 18.6302 66.8527C18.3299 66.2532 18.1797 65.6536 18.1797 65.054C18.1797 64.4544 18.3299 63.8549 18.6302 63.2553C18.9304 62.6557 19.3809 62.3559 19.9814 62.0562C20.582 61.7564 21.1826 61.6065 21.7832 61.6065C22.5339 61.6065 23.1344 61.7564 23.5849 62.0562C24.1854 62.3559 24.6359 62.8056 24.9362 63.2553C25.2364 63.8549 25.3866 64.4544 25.3866 65.054C25.3866 65.6536 25.2364 66.2532 24.9362 66.8527C24.6359 67.4523 24.1854 67.7521 23.5849 68.0519C22.9843 68.3517 22.3837 68.5016 21.7832 68.5016ZM21.7832 67.6022C22.2336 67.6022 22.684 67.4523 23.1344 67.3024C23.5849 67.0026 23.8852 66.7028 24.0353 66.4031C24.3356 65.9534 24.3356 65.5037 24.3356 65.054C24.3356 64.6043 24.1854 64.1547 24.0353 63.705C23.735 63.2553 23.4347 62.9555 23.1344 62.8056C22.684 62.5058 22.2336 62.5058 21.7832 62.5058C21.3327 62.5058 20.8823 62.6557 20.4319 62.8056C19.9814 63.1054 19.6812 63.4052 19.531 63.705C19.2307 64.1547 19.2307 64.6043 19.2307 65.054C19.2307 65.5037 19.3809 65.9534 19.531 66.4031C19.8313 66.8527 20.1316 67.1525 20.4319 67.3024C20.8823 67.6022 21.3327 67.6022 21.7832 67.6022ZM30.6416 61.6065C31.5424 61.6065 32.2932 61.7564 32.7436 62.2061C33.194 62.6557 33.4943 63.2553 33.4943 64.0048C33.4943 64.7542 33.194 65.3538 32.7436 65.8035C32.2932 66.2532 31.5424 66.4031 30.6416 66.4031H28.99V68.5016H27.939V61.6065H30.6416ZM30.6416 65.5037C31.2422 65.5037 31.6926 65.3538 31.9929 65.054C32.2932 64.7542 32.4433 64.4544 32.4433 63.8549C32.4433 63.4052 32.2932 62.9555 31.9929 62.6557C31.6926 62.3559 31.2422 62.2061 30.6416 62.2061H28.99V65.3538H30.6416V65.5037ZM41.4519 61.6065L38.449 67.3024C38.1487 67.7521 37.8484 68.0519 37.5482 68.3517C37.2479 68.5016 36.7974 68.6514 36.4972 68.6514C36.1969 68.6514 35.8966 68.6514 35.5963 68.5016L35.8966 67.7521C36.1969 67.902 36.347 67.902 36.4972 67.902C36.9476 67.902 37.2479 67.6022 37.5482 67.1525L37.6983 66.8527L34.9957 61.6065H36.0467L38.2989 65.9534L40.551 61.6065H41.4519ZM49.8599 67.6022V70.0005H48.959V68.5016H43.2536V70.0005H42.3527V67.6022H42.653C43.1034 67.6022 43.4037 67.3024 43.5539 66.5529C43.704 65.9534 43.8541 64.9041 43.8541 63.705V61.4566H48.6587V67.4523H49.7097L49.8599 67.6022ZM44.755 63.8549C44.755 64.7542 44.6049 65.6536 44.4547 66.2532C44.3046 66.8527 44.1544 67.3024 43.8541 67.6022H47.7579V62.5058H44.755V64.0048V63.8549ZM55.265 68.5016C54.5143 68.5016 53.9137 68.3517 53.4633 68.0519C52.8627 67.7521 52.4123 67.3024 52.112 66.8527C51.8117 66.2532 51.6616 65.6536 51.6616 65.054C51.6616 64.4544 51.8117 63.8549 52.112 63.2553C52.4123 62.6557 52.8627 62.3559 53.4633 62.0562C54.0639 61.7564 54.6644 61.6065 55.265 61.6065C56.0157 61.6065 56.6163 61.7564 57.0667 62.0562C57.6673 62.3559 58.1177 62.8056 58.418 63.2553C58.7183 63.8549 58.8684 64.4544 58.8684 65.054C58.8684 65.6536 58.7183 66.2532 58.418 66.8527C58.1177 67.4523 57.6673 67.7521 57.0667 68.0519C56.4661 68.3517 55.8656 68.5016 55.265 68.5016ZM55.265 67.6022C55.7154 67.6022 56.1659 67.4523 56.6163 67.3024C57.0667 67.0026 57.367 66.7028 57.5171 66.4031C57.8174 65.9534 57.8174 65.5037 57.8174 65.054C57.8174 64.6043 57.6673 64.1547 57.5171 63.705C57.2169 63.2553 56.9166 62.9555 56.6163 62.8056C56.1659 62.5058 55.7154 62.5058 55.265 62.5058C54.8146 62.5058 54.3641 62.6557 53.9137 62.8056C53.4633 63.1054 53.163 63.4052 53.0129 63.705C52.7126 64.1547 52.7126 64.6043 52.7126 65.054C52.7126 65.5037 52.8627 65.9534 53.0129 66.4031C53.3131 66.8527 53.6134 67.1525 53.9137 67.3024C54.3641 67.6022 54.8146 67.6022 55.265 67.6022ZM65.775 64.9041C66.2254 65.054 66.5257 65.2039 66.826 65.5037C67.1263 65.8035 67.1263 66.1033 67.1263 66.5529C67.1263 67.1525 66.9761 67.6022 66.5257 67.902C66.0753 68.2018 65.4747 68.3517 64.5739 68.3517H61.4209V61.4566H64.4237C65.1744 61.4566 65.775 61.6065 66.2254 61.9063C66.6759 62.2061 66.826 62.6557 66.826 63.2553C66.826 63.5551 66.6759 64.0048 66.5257 64.1547C66.3756 64.4544 66.0753 64.6043 65.775 64.7542V64.9041ZM62.4719 64.6043H64.4237C64.8741 64.6043 65.3246 64.4544 65.4747 64.3046C65.775 64.1547 65.9251 63.8549 65.9251 63.4052C65.9251 63.1054 65.775 62.8056 65.4747 62.5058C65.1744 62.3559 64.8741 62.2061 64.4237 62.2061H62.4719V64.4544V64.6043ZM64.5739 67.6022C65.6249 67.6022 66.2254 67.1525 66.2254 66.4031C66.2254 65.9534 66.0753 65.6536 65.775 65.5037C65.4747 65.3538 65.1744 65.2039 64.5739 65.2039H62.4719V67.4523H64.5739V67.6022ZM74.183 66.7028H70.5796L69.8289 68.3517H68.7779L71.9309 61.4566H72.8317L75.9847 68.3517H74.9337L74.183 66.7028ZM73.8827 65.9534L72.3813 62.6557L70.8799 65.9534H73.8827ZM84.0924 61.6065V68.5016H83.0414V65.5037H79.1377V68.5016H78.0867V61.6065H79.1377V64.6043H83.0414V61.6065H84.0924ZM87.2454 61.6065H88.1463V66.8527L92.2001 61.6065H93.101V68.5016H92.2001V63.2553L88.1463 68.5016H87.2454V61.6065ZM101.359 67.6022V68.5016H96.4041V61.6065H101.209V62.5058H97.305V64.6043H100.758V65.5037H97.305V67.7521H101.359V67.6022ZM79.7383 28.3302V27.8806L84.9933 23.6836H94.9027H99.5571V28.3302V42.72H94.9027V28.3302H84.3927V42.72H79.7383V28.3302ZM103.311 23.6836H107.965V35.0754L113.22 30.8784H117.424H122.079V35.5251V38.0733V42.72H107.965H103.311V23.6836ZM107.965 35.5251V42.2703L113.22 38.0733H117.424V35.5251H107.965ZM55.5653 23.6836H60.2197V38.0733L70.1291 28.3302V34.0262L61.8713 42.72H60.2197H55.5653V23.6836ZM71.4804 23.6836H76.1349V42.72H71.4804V23.6836ZM37.9986 42.72H42.653V28.3302H51.8117V23.6836H45.2054H35.4462H28.8399V28.3302H42.3527L38.1487 33.5765V42.72H37.9986Z" fill="white"/>
<path fill-rule="evenodd" clip-rule="evenodd" d="M127.334 4.64668H115.923H109.017V4.197L114.272 0H115.923H127.334H127.484H131.988V4.64668V14.3897H127.334V4.64668Z" fill="#33E1ED"/>
<path fill-rule="evenodd" clip-rule="evenodd" d="M113.671 14.3895H125.082H131.988V14.8392L126.733 19.0362H125.082H113.671H113.521H109.017V14.3895V4.64648H113.671V14.3895Z" fill="white"/>
</svg>
