<svg width="143" height="156" viewBox="0 0 143 156" fill="none" xmlns="http://www.w3.org/2000/svg">
<path d="M1.51949 118.445C0.24791 119.255 -0.13002 120.946 0.724121 122.188C9.72986 135.288 22.5389 145.344 37.452 150.973C53.2178 156.925 70.487 157.611 86.675 152.928C102.863 148.245 117.099 138.446 127.253 124.996C137.406 111.546 142.93 95.1704 142.999 78.3188C143.068 61.4672 137.678 45.0465 127.635 31.5144C117.591 17.9824 103.436 8.06677 87.2868 3.25175C71.1376 -1.56325 53.8633 -1.01869 38.0494 4.80391C23.0908 10.3116 10.2 20.2617 1.08746 33.2877C0.223206 34.5231 0.587296 36.2169 1.8522 37.0375C3.11713 37.858 4.80353 37.4943 5.67105 36.2612C14.1393 24.2238 26.0844 15.0278 39.936 9.92764C54.6429 4.5126 70.7079 4.00618 85.7267 8.48413C100.745 12.9621 113.91 22.1836 123.25 34.7684C132.59 47.3532 137.603 62.6245 137.539 78.2965C137.475 93.9685 132.337 109.198 122.895 121.706C113.452 134.214 100.213 143.328 85.1578 147.683C70.1029 152.038 54.0425 151.4 39.3804 145.865C25.5709 140.652 13.7014 131.359 5.33186 119.252C4.47444 118.012 2.79106 117.635 1.51949 118.445Z" fill="url(#paint0_angular_370_844)"/>
<defs>
<radialGradient id="paint0_angular_370_844" cx="0" cy="0" r="1" gradientUnits="userSpaceOnUse" gradientTransform="translate(41.137 121.808) rotate(-139.205) scale(68.6871 72.3033)">
<stop stop-color="#40E1EC"/>
<stop offset="1" stop-color="#C4C4C4" stop-opacity="0"/>
<stop offset="1" stop-color="#40E1EC" stop-opacity="0.1"/>
</radialGradient>
</defs>
</svg>
