<svg width="26" height="17" viewBox="0 0 26 17" fill="none" xmlns="http://www.w3.org/2000/svg">
<path fill-rule="evenodd" clip-rule="evenodd" d="M0.75 8.2575C0.75 8.02543 0.842187 7.80287 1.00628 7.63878C1.17038 7.47468 1.39294 7.3825 1.625 7.3825H22.2628L16.7555 1.877C16.5912 1.7127 16.4989 1.48985 16.4989 1.2575C16.4989 1.02514 16.5912 0.802298 16.7555 0.637997C16.9198 0.473695 17.1426 0.381391 17.375 0.381391C17.6074 0.381391 17.8302 0.473695 17.9945 0.637997L24.9945 7.638C25.076 7.71928 25.1406 7.81583 25.1847 7.92214C25.2289 8.02844 25.2516 8.1424 25.2516 8.2575C25.2516 8.37259 25.2289 8.48655 25.1847 8.59285C25.1406 8.69916 25.076 8.79572 24.9945 8.877L17.9945 15.877C17.8302 16.0413 17.6074 16.1336 17.375 16.1336C17.1426 16.1336 16.9198 16.0413 16.7555 15.877C16.5912 15.7127 16.4989 15.4899 16.4989 15.2575C16.4989 15.0251 16.5912 14.8023 16.7555 14.638L22.2628 9.1325H1.625C1.39294 9.1325 1.17038 9.04031 1.00628 8.87621C0.842187 8.71212 0.75 8.48956 0.75 8.2575Z" fill="black"/>
</svg>
