<svg width="26" height="27" viewBox="0 0 26 27" fill="none" xmlns="http://www.w3.org/2000/svg">
<path d="M15.2627 13.5L25.6252 3.13749C25.83 2.89836 25.937 2.59077 25.9248 2.27617C25.9127 1.96158 25.7823 1.66315 25.5597 1.44053C25.337 1.21792 25.0386 1.0875 24.724 1.07535C24.4094 1.0632 24.1018 1.1702 23.8627 1.37499L13.5002 11.7375L3.13771 1.36249C2.90233 1.12711 2.58309 0.994873 2.25021 0.994873C1.91733 0.994873 1.59809 1.12711 1.36271 1.36249C1.12733 1.59787 0.995096 1.91711 0.995096 2.24999C0.995096 2.58286 1.12733 2.90211 1.36271 3.13749L11.7377 13.5L1.36271 23.8625C1.23186 23.9745 1.12558 24.1124 1.05055 24.2675C0.975525 24.4226 0.933362 24.5915 0.926713 24.7637C0.920063 24.9358 0.94907 25.1075 1.01191 25.2679C1.07476 25.4283 1.17008 25.574 1.2919 25.6958C1.41372 25.8176 1.5594 25.9129 1.71981 25.9758C1.88021 26.0386 2.05188 26.0676 2.22403 26.061C2.39618 26.0543 2.56509 26.0122 2.72017 25.9371C2.87525 25.8621 3.01315 25.7558 3.12521 25.625L13.5002 15.2625L23.8627 25.625C24.1018 25.8298 24.4094 25.9368 24.724 25.9246C25.0386 25.9125 25.337 25.7821 25.5597 25.5594C25.7823 25.3368 25.9127 25.0384 25.9248 24.7238C25.937 24.4092 25.83 24.1016 25.6252 23.8625L15.2627 13.5Z" fill="#1E1E2C"/>
</svg>
