<svg width="330" height="47" viewBox="0 0 330 47" fill="none" xmlns="http://www.w3.org/2000/svg">
<g clip-path="url(#clip0_343_501)">
<path fill-rule="evenodd" clip-rule="evenodd" d="M18.1682 6.0029V24.5573H12.1344V6.0029H0.204102V-6.4671e-06H8.84331H21.5964H30.2356V6.0029H18.3053H18.1682ZM8.43192 36.0856H5.00366V44.8171H3.63236V36.0856H0.204102V34.8578H8.43192V36.0856ZM18.9224 43.5893V44.8171H11.6545V34.8578H18.7167V36.0856H13.0943V39.1553H18.0996V40.3832H13.0943V43.5893H18.9224ZM23.1049 34.8578L25.7103 38.4731L28.3158 34.8578H29.9614L26.6017 39.6328L30.2356 44.8171H28.5215L25.6418 40.8607L22.762 44.8171H21.1165L24.7504 39.701L21.3222 34.8578H22.9677H23.1049ZM41.8231 34.8578V44.8171H40.3833V40.3832H34.6238V44.8171H33.1839V34.8578H34.6238V39.1553H40.3833V34.8578H41.8231ZM50.8737 44.9535C49.8453 44.9535 48.9539 44.7489 48.1311 44.2714C47.3083 43.8621 46.6913 43.2482 46.2113 42.4296C45.7314 41.6792 45.5257 40.7924 45.5257 39.8374C45.5257 38.8824 45.7314 37.9956 46.2113 37.2453C46.6913 36.4949 47.3083 35.881 48.1311 35.4035C48.9539 34.9942 49.8453 34.7213 50.8737 34.7213C51.9022 34.7213 52.7936 34.926 53.6163 35.4035C54.4391 35.8128 55.0562 36.4267 55.5362 37.2453C56.0161 37.9956 56.2218 38.8824 56.2218 39.8374C56.2218 40.7924 56.0161 41.6792 55.5362 42.4296C55.0562 43.18 54.4391 43.7939 53.6163 44.2714C52.7936 44.6807 51.9022 44.9535 50.8737 44.9535ZM50.8737 43.6575C51.628 43.6575 52.245 43.521 52.8621 43.18C53.4792 42.8389 53.8906 42.3614 54.2334 41.8157C54.5763 41.2017 54.7134 40.5878 54.7134 39.8374C54.7134 39.0871 54.5763 38.4731 54.2334 37.8592C53.8906 37.2453 53.4106 36.836 52.8621 36.4949C52.245 36.1538 51.628 36.0174 50.8737 36.0174C50.1195 36.0174 49.5024 36.1538 48.8853 36.4949C48.2683 36.836 47.7883 37.3135 47.514 37.8592C47.1712 38.4731 47.0341 39.0871 47.0341 39.8374C47.0341 40.5878 47.1712 41.2017 47.514 41.8157C47.8569 42.4296 48.3368 42.8389 48.8853 43.18C49.5024 43.521 50.1195 43.6575 50.8737 43.6575ZM67.8093 34.8578V44.8171H66.438V36.0856H61.9813L61.9127 39.0189C61.8442 40.3832 61.7756 41.4746 61.5699 42.3614C61.3642 43.2482 61.0899 43.8621 60.7471 44.2714C60.3357 44.6807 59.8558 44.8853 59.1701 44.8853C58.8959 44.8853 58.553 44.8171 58.2788 44.7489L58.3473 43.4528C58.4845 43.521 58.6216 43.521 58.8273 43.521C59.2387 43.521 59.5815 43.3846 59.7872 43.0435C60.0615 42.7025 60.1986 42.225 60.3357 41.5428C60.4729 40.8607 60.5414 40.0421 60.61 38.9506L60.7471 34.7213H67.8093V34.8578ZM76.8599 44.9535C75.8315 44.9535 74.9401 44.7489 74.1173 44.2714C73.2945 43.8621 72.6775 43.2482 72.1975 42.4296C71.7175 41.6792 71.5118 40.7924 71.5118 39.8374C71.5118 38.8824 71.7175 37.9956 72.1975 37.2453C72.6775 36.4949 73.2945 35.881 74.1173 35.4035C74.9401 34.9942 75.8315 34.7213 76.8599 34.7213C77.8884 34.7213 78.7797 34.926 79.6025 35.4035C80.4253 35.8128 81.0424 36.4267 81.5224 37.2453C82.0023 37.9956 82.208 38.8824 82.208 39.8374C82.208 40.7924 82.0023 41.6792 81.5224 42.4296C81.0424 43.18 80.4253 43.7939 79.6025 44.2714C78.7797 44.6807 77.8884 44.9535 76.8599 44.9535ZM76.8599 43.6575C77.6141 43.6575 78.2312 43.521 78.8483 43.18C79.4654 42.8389 79.8768 42.3614 80.2196 41.8157C80.5624 41.2017 80.6996 40.5878 80.6996 39.8374C80.6996 39.0871 80.5624 38.4731 80.2196 37.8592C79.8768 37.2453 79.3968 36.836 78.8483 36.4949C78.2312 36.1538 77.6141 36.0174 76.8599 36.0174C76.1057 36.0174 75.4886 36.1538 74.8715 36.4949C74.2544 36.836 73.8431 37.3135 73.5002 37.8592C73.1574 38.4731 73.0203 39.0871 73.0203 39.8374C73.0203 40.5878 73.1574 41.2017 73.5002 41.8157C73.8431 42.4296 74.323 42.8389 74.8715 43.18C75.4886 43.521 76.1057 43.6575 76.8599 43.6575ZM92.4928 36.0856H87.3504V44.8171H85.9105V34.8578H92.4928V36.0856ZM95.6468 34.8578H97.0866V42.566L102.983 34.8578H104.286V44.8171H102.915V37.1771L96.9495 44.8171H95.6468V34.8578ZM116.011 34.8578V44.8171H114.571V40.8607C113.542 41.27 112.514 41.4746 111.622 41.4746C110.388 41.4746 109.428 41.2017 108.811 40.5878C108.126 39.9739 107.783 39.1553 107.783 38.0639V34.8578H109.154V37.9274C109.154 38.6778 109.36 39.2235 109.84 39.6328C110.32 40.0421 110.937 40.2467 111.76 40.2467C112.651 40.2467 113.611 40.0421 114.502 39.6328V34.8578H115.942H116.011ZM127.872 43.5893V44.8171H120.604V34.8578H127.667V36.0856H122.044V39.1553H127.05V40.3832H122.044V43.5893H127.872ZM136.032 44.9535C135.003 44.9535 134.112 44.7489 133.289 44.2714C132.466 43.8621 131.849 43.2482 131.369 42.4296C130.889 41.6792 130.684 40.7924 130.684 39.8374C130.684 38.8824 130.889 37.9956 131.369 37.2453C131.849 36.4949 132.466 35.881 133.289 35.4035C134.112 34.9942 135.003 34.7213 136.032 34.7213C136.786 34.7213 137.54 34.8578 138.157 35.1306C138.774 35.4035 139.391 35.7446 139.803 36.2903L138.843 37.1771C138.089 36.3585 137.129 36.0174 136.032 36.0174C135.277 36.0174 134.592 36.1538 134.043 36.4949C133.426 36.836 132.946 37.3135 132.603 37.8592C132.261 38.4731 132.123 39.0871 132.123 39.8374C132.123 40.5878 132.261 41.2017 132.603 41.8157C132.946 42.4296 133.426 42.8389 134.043 43.18C134.66 43.521 135.346 43.6575 136.032 43.6575C137.129 43.6575 138.089 43.2482 138.843 42.4296L139.803 43.3164C139.323 43.8621 138.774 44.2032 138.157 44.476C137.472 44.7489 136.786 44.8853 136.032 44.8853V44.9535ZM146.796 40.4514H144.739V44.8171H143.368V34.8578H144.739V39.1553H146.865L150.019 34.8578H151.527L147.962 39.701L151.733 44.8171H150.087L146.865 40.4514H146.796ZM159.07 44.9535C158.041 44.9535 157.15 44.7489 156.327 44.2714C155.504 43.8621 154.887 43.2482 154.407 42.4296C153.927 41.6792 153.721 40.7924 153.721 39.8374C153.721 38.8824 153.927 37.9956 154.407 37.2453C154.887 36.4949 155.504 35.881 156.327 35.4035C157.15 34.9942 158.041 34.7213 159.07 34.7213C160.098 34.7213 160.989 34.926 161.812 35.4035C162.635 35.8128 163.252 36.4267 163.732 37.2453C164.212 37.9956 164.418 38.8824 164.418 39.8374C164.418 40.7924 164.212 41.6792 163.732 42.4296C163.252 43.18 162.635 43.7939 161.812 44.2714C160.989 44.6807 160.098 44.9535 159.07 44.9535ZM159.07 43.6575C159.824 43.6575 160.441 43.521 161.058 43.18C161.675 42.8389 162.086 42.3614 162.429 41.8157C162.772 41.2017 162.909 40.5878 162.909 39.8374C162.909 39.0871 162.772 38.4731 162.429 37.8592C162.086 37.2453 161.606 36.836 161.058 36.4949C160.441 36.1538 159.824 36.0174 159.07 36.0174C158.315 36.0174 157.698 36.1538 157.081 36.4949C156.464 36.836 156.053 37.3135 155.71 37.8592C155.367 38.4731 155.23 39.0871 155.23 39.8374C155.23 40.5878 155.367 41.2017 155.71 41.8157C156.053 42.4296 156.533 42.8389 157.081 43.18C157.698 43.521 158.315 43.6575 159.07 43.6575ZM175.388 43.5893V44.8171H168.12V34.8578H175.182V36.0856H169.56V39.1553H174.565V40.3832H169.56V43.5893H175.388ZM188.415 44.9535C187.387 44.9535 186.496 44.7489 185.673 44.2714C184.85 43.8621 184.233 43.2482 183.753 42.4296C183.273 41.6792 183.067 40.7924 183.067 39.8374C183.067 38.8824 183.273 37.9956 183.753 37.2453C184.233 36.4949 184.85 35.881 185.673 35.4035C186.496 34.9942 187.387 34.7213 188.415 34.7213C189.444 34.7213 190.335 34.926 191.158 35.4035C191.981 35.8128 192.598 36.4267 193.078 37.2453C193.558 37.9956 193.763 38.8824 193.763 39.8374C193.763 40.7924 193.558 41.6792 193.078 42.4296C192.598 43.18 191.981 43.7939 191.158 44.2714C190.335 44.6807 189.444 44.9535 188.415 44.9535ZM188.415 43.6575C189.17 43.6575 189.787 43.521 190.404 43.18C191.021 42.8389 191.432 42.3614 191.775 41.8157C192.118 41.2017 192.255 40.5878 192.255 39.8374C192.255 39.0871 192.118 38.4731 191.775 37.8592C191.432 37.2453 190.952 36.836 190.404 36.4949C189.787 36.1538 189.17 36.0174 188.415 36.0174C187.661 36.0174 187.044 36.1538 186.427 36.4949C185.81 36.836 185.399 37.3135 185.056 37.8592C184.713 38.4731 184.576 39.0871 184.576 39.8374C184.576 40.5878 184.713 41.2017 185.056 41.8157C185.399 42.4296 185.878 42.8389 186.427 43.18C187.044 43.521 187.661 43.6575 188.415 43.6575ZM197.466 34.8578H205.008V36.0856H198.906V38.9506H201.991C203.157 38.9506 204.117 39.2235 204.734 39.701C205.351 40.1785 205.694 40.9289 205.694 41.8157C205.694 42.7707 205.351 43.521 204.665 44.0668C203.98 44.6125 203.02 44.8171 201.786 44.8171H197.466V34.8578ZM201.717 43.6575C202.54 43.6575 203.157 43.521 203.568 43.18C203.98 42.8389 204.185 42.4296 204.185 41.8157C204.185 40.5878 203.363 40.0421 201.648 40.0421H198.837V43.7257H201.648L201.717 43.6575ZM213.922 44.8853C212.893 44.8853 212.002 44.6807 211.179 44.2032C210.356 43.7939 209.739 43.18 209.259 42.3614C208.779 41.611 208.574 40.7242 208.574 39.7692C208.574 38.8142 208.779 37.9274 209.259 37.1771C209.739 36.4267 210.356 35.8128 211.179 35.3353C212.002 34.926 212.893 34.6531 213.922 34.6531C214.95 34.6531 215.841 34.8578 216.664 35.3353C217.487 35.7446 218.104 36.3585 218.584 37.1771C219.064 37.9274 219.27 38.8142 219.27 39.7692C219.27 40.7242 219.064 41.611 218.584 42.3614C218.104 43.1117 217.487 43.7257 216.664 44.2032C215.841 44.6125 214.95 44.8853 213.922 44.8853ZM213.922 43.5893C214.676 43.5893 215.293 43.4528 215.91 43.1117C216.527 42.7707 216.939 42.2932 217.281 41.7475C217.624 41.1335 217.761 40.5196 217.761 39.7692C217.761 39.0189 217.624 38.4049 217.281 37.791C216.939 37.1771 216.459 36.7678 215.91 36.4267C215.293 36.0856 214.676 35.9492 213.922 35.9492C213.167 35.9492 212.55 36.0856 211.933 36.4267C211.316 36.7678 210.905 37.2453 210.562 37.791C210.219 38.4049 210.082 39.0189 210.082 39.7692C210.082 40.5196 210.219 41.1335 210.562 41.7475C210.905 42.3614 211.385 42.7707 211.933 43.1117C212.55 43.4528 213.167 43.5893 213.922 43.5893ZM226.88 34.7895C228.183 34.7895 229.212 35.1306 229.966 35.7446C230.72 36.3585 231.063 37.1771 231.063 38.2685C231.063 39.3599 230.72 40.1785 229.966 40.7924C229.212 41.4064 228.183 41.7475 226.88 41.7475H224.412V44.7489H222.972V34.7895H226.88ZM226.812 40.5196C227.703 40.5196 228.389 40.3149 228.869 39.9739C229.349 39.5646 229.554 39.0189 229.554 38.3367C229.554 37.5863 229.349 37.0406 228.869 36.6996C228.389 36.2903 227.703 36.1538 226.812 36.1538H224.412V40.5878H226.812V40.5196ZM242.445 34.7895L237.988 42.9753C237.645 43.6575 237.234 44.135 236.754 44.4078C236.274 44.7489 235.725 44.8853 235.177 44.8853C234.765 44.8853 234.285 44.8171 233.806 44.6125L234.148 43.4528C234.491 43.5893 234.834 43.6575 235.108 43.6575C235.725 43.6575 236.274 43.3164 236.685 42.6342L236.891 42.2932L232.846 34.7213H234.354L237.577 41.0653L240.936 34.7213H242.376L242.445 34.7895ZM254.786 43.521V46.9318H253.484V44.7489H245.256V46.9318H243.953V43.521H244.433C245.05 43.4528 245.53 42.9753 245.736 42.0203C246.01 41.0653 246.147 39.701 246.216 37.9956L246.284 34.7895H253.347V43.521H254.786ZM247.45 38.1321C247.381 39.5646 247.313 40.7242 247.107 41.611C246.901 42.4978 246.627 43.18 246.284 43.521H251.907V36.0174H247.519L247.45 38.1321ZM262.74 44.8853C261.712 44.8853 260.82 44.6807 259.997 44.2032C259.175 43.7939 258.558 43.18 258.078 42.3614C257.598 41.611 257.392 40.7242 257.392 39.7692C257.392 38.8142 257.598 37.9274 258.078 37.1771C258.558 36.4267 259.175 35.8128 259.997 35.3353C260.82 34.926 261.712 34.6531 262.74 34.6531C263.768 34.6531 264.66 34.8578 265.483 35.3353C266.305 35.7446 266.922 36.3585 267.402 37.1771C267.882 37.9274 268.088 38.8142 268.088 39.7692C268.088 40.7242 267.882 41.611 267.402 42.3614C266.922 43.1117 266.305 43.7257 265.483 44.2032C264.66 44.6125 263.768 44.8853 262.74 44.8853ZM262.74 43.5893C263.494 43.5893 264.111 43.4528 264.728 43.1117C265.345 42.7707 265.757 42.2932 266.1 41.7475C266.443 41.1335 266.58 40.5196 266.58 39.7692C266.58 39.0189 266.443 38.4049 266.1 37.791C265.757 37.1771 265.277 36.7678 264.728 36.4267C264.111 36.0856 263.494 35.9492 262.74 35.9492C261.986 35.9492 261.369 36.0856 260.752 36.4267C260.135 36.7678 259.655 37.2453 259.38 37.791C259.038 38.4049 258.9 39.0189 258.9 39.7692C258.9 40.5196 259.038 41.1335 259.38 41.7475C259.723 42.3614 260.203 42.7707 260.752 43.1117C261.369 43.4528 261.986 43.5893 262.74 43.5893ZM278.03 39.5646C278.716 39.701 279.196 40.0421 279.538 40.4514C279.881 40.8607 280.087 41.4064 280.087 42.0203C280.087 42.9071 279.744 43.521 279.127 43.9985C278.51 44.476 277.55 44.6807 276.384 44.6807H271.791V34.7213H276.11C277.207 34.7213 278.03 34.926 278.647 35.4035C279.264 35.8128 279.538 36.4949 279.538 37.3135C279.538 37.8592 279.401 38.3367 279.127 38.6778C278.853 39.0871 278.441 39.3599 277.961 39.5646H278.03ZM273.23 39.1553H276.042C276.727 39.1553 277.276 39.0189 277.619 38.746C277.961 38.4731 278.167 38.0639 278.167 37.5181C278.167 36.9724 277.961 36.5631 277.619 36.2903C277.276 36.0174 276.727 35.881 276.042 35.881H273.23V39.1553ZM276.384 43.5893C277.893 43.5893 278.716 43.0435 278.716 41.8839C278.716 41.3382 278.51 40.9289 278.167 40.656C277.756 40.3832 277.207 40.2467 276.453 40.2467H273.299V43.5893H276.453H276.384ZM290.509 42.225H285.161L284.064 44.6807H282.624L287.149 34.7213H288.589L293.114 44.6807H291.606L290.509 42.225ZM290.029 41.0653L287.903 36.1538L285.778 41.0653H290.098H290.029ZM304.908 34.7213V44.6807H303.468V40.2467H297.708V44.6807H296.268V34.7213H297.708V39.0189H303.468V34.7213H304.908ZM309.501 34.7213H310.941V42.4296L316.838 34.7213H318.141V44.6807H316.769V37.0406L310.804 44.6807H309.501V34.7213ZM330.002 43.4528V44.6807H322.734V34.7213H329.797V35.9492H324.174V39.0189H329.18V40.2467H324.174V43.4528H330.002ZM180.188 24.4891H180.119H174.085V18.4862V5.93468V5.45718L180.942 -0.0682213H204.048V5.93468H180.119V18.4862H194.929H204.048V19.0319L197.192 24.5573H194.998H180.188V24.4891ZM238.879 -0.136436V5.86647H226.949V24.4209H220.915V12.6879L226.469 5.86647H208.985V-0.136436H217.624H230.377H239.016H238.879ZM243.679 -0.136436H249.713V18.4862L262.534 5.86647V13.2337L251.907 24.4891H249.713H243.679V-0.136436ZM264.317 -0.136436H270.351V24.4891H264.317V-0.136436ZM300.862 -0.136436V5.86647V24.4209H294.828V5.86647H281.253V24.4209H275.219V5.86647V5.38896L282.075 -0.136436H294.828H300.862ZM305.662 -0.136436H311.696V14.6662L318.552 9.14078H323.969H330.002V15.1437V18.418V24.4209H311.627H305.593V-0.204651L305.662 -0.136436ZM311.696 15.1437V23.9434L318.552 18.418H323.969V15.1437H311.627H311.696ZM145.494 18.418H160.304H169.423V18.9637L162.566 24.4891H160.372H145.562H145.494H139.46V18.4862V5.93468H145.494V18.4862V18.418ZM104.697 -0.136436H110.731V14.6662L117.588 9.14078H128.558V-0.136436H134.592V24.4891H128.558V15.2119H110.663V24.4891H104.629V-0.136436H104.697ZM88.996 12.1422L99.7607 -0.0682213H91.5329L87.8989 3.47895V10.3004L88.2417 11.3237L78.0941 -0.0682213H69.8663L80.7681 12.2104L81.4538 12.9608L69.8663 24.3527H78.0941L81.8652 19.9187V13.3701L91.67 24.4209H99.8978L88.996 12.1422ZM35.1038 -0.136436H41.1375V5.38896L47.994 -0.136436H65.0667V5.86647H41.1375V14.6662L47.994 9.14078H59.5129V15.1437H41.1375V23.9434L47.994 18.418H65.0667V24.4209H41.1375H35.1038V-0.204651V-0.136436Z" fill="white"/>
<path fill-rule="evenodd" clip-rule="evenodd" d="M163.183 6.0029H148.305H139.254V5.5254L146.11 0H148.305H163.183H169.217V6.0029V18.5544H163.183V6.0029Z" fill="#33E1ED"/>
</g>
<defs>
<clipPath id="clip0_343_501">
<rect width="330" height="47" fill="white"/>
</clipPath>
</defs>
</svg>
